<?xml version="1.0" encoding="iso-8859-1"?>
<!-- Uploaded to: SVG Repo, www.svgrepo.com, Generator: SVG Repo Mixer Tools -->
<svg version="1.1" id="Layer_1" xmlns="http://www.w3.org/2000/svg" xmlns:xlink="http://www.w3.org/1999/xlink" 
	 viewBox="0 0 512.001 512.001" xml:space="preserve">
<g>
	<rect x="348.315" y="290.037" style="fill:#F4B2B0;" width="87.23" height="66.389"/>
	<rect x="348.315" y="356.426" style="fill:#F4B2B0;" width="87.23" height="66.389"/>
</g>
<g>
	<path style="fill:#B3404A;" d="M435.543,275.647h-29.235v-21.065c0-7.943-6.44-14.382-14.382-14.382h-43.616
		c-7.942,0-14.382,6.439-14.382,14.382c0,7.943,6.44,14.382,14.382,14.382h29.234v6.682h-29.235
		c-7.942,0-14.382,6.439-14.382,14.382v66.395v66.395c0,7.943,6.44,14.382,14.382,14.382h29.235v12.959
		c0,18.237-14.837,33.075-33.074,33.075H123.916c-18.238,0-33.075-14.837-33.075-33.075V268.965h193.925
		c7.942,0,14.382-6.439,14.382-14.382c0-7.943-6.44-14.382-14.382-14.382H76.459c-7.942,0-14.382,6.439-14.382,14.382v195.579
		c0,34.098,27.741,61.84,61.84,61.84h220.552c34.098,0,61.839-27.741,61.839-61.84v-12.959h29.235
		c7.942,0,14.382-6.439,14.382-14.382v-66.395V290.03C449.925,282.086,443.485,275.647,435.543,275.647z M362.688,304.412h29.235
		h29.235v37.63h-58.47L362.688,304.412L362.688,304.412z M421.16,408.436h-29.235H362.69v-37.63h58.47V408.436z"/>
	<path style="fill:#B3404A;" d="M334.87,212.881c-7.942,0-14.382-6.439-14.382-14.382V115.06c0-47.583-38.712-86.295-86.295-86.295
		s-86.295,38.712-86.295,86.295v83.438c0,7.943-6.44,14.382-14.382,14.382c-7.942,0-14.382-6.439-14.382-14.382V115.06
		C119.133,51.616,170.749,0,234.193,0s115.06,51.616,115.06,115.06v83.438C349.252,206.442,342.812,212.881,334.87,212.881z"/>
</g>
<polygon style="fill:#F4B2B0;" points="294.36,349.153 261.138,315.931 234.191,342.878 207.246,315.931 174.024,349.153 
	200.969,376.1 174.024,403.047 207.246,436.269 234.191,409.322 261.138,436.269 294.36,403.047 267.413,376.1 "/>
<path style="fill:#B3404A;" d="M261.138,450.652L261.138,450.652c-3.814,0-7.473-1.516-10.17-4.213l-16.776-16.777l-16.777,16.777
	c-2.698,2.697-6.356,4.213-10.17,4.213c-3.814,0-7.472-1.516-10.17-4.213l-33.222-33.222c-2.697-2.697-4.213-6.356-4.213-10.17
	s1.516-7.473,4.213-10.17l16.777-16.777l-16.777-16.777c-2.697-2.697-4.213-6.356-4.213-10.17c0-3.814,1.516-7.473,4.213-10.17
	l33.222-33.222c5.618-5.615,14.722-5.616,20.341,0l16.777,16.777l16.776-16.777c5.618-5.616,14.722-5.618,20.341,0l33.224,33.222
	c2.697,2.697,4.213,6.356,4.213,10.17c0,3.814-1.516,7.473-4.213,10.17L287.757,376.1l16.777,16.777
	c2.697,2.697,4.213,6.356,4.213,10.17s-1.516,7.473-4.213,10.17l-33.224,33.222C268.61,449.136,264.952,450.652,261.138,450.652z
	 M194.363,403.047l12.881,12.882l16.777-16.779c2.698-2.697,6.356-4.213,10.17-4.213l0,0c3.814,0,7.473,1.516,10.17,4.213
	l16.776,16.777l12.882-12.882l-16.777-16.777c-2.697-2.697-4.213-6.356-4.213-10.17s1.516-7.473,4.213-10.17l16.777-16.777
	l-12.882-12.882l-16.776,16.777c-5.618,5.616-14.722,5.618-20.341,0l-16.777-16.777l-12.881,12.882l16.777,16.777
	c2.697,2.697,4.213,6.356,4.213,10.17s-1.516,7.473-4.213,10.17L194.363,403.047z"/>
</svg>